<svg width="81" height="26" viewBox="0 0 81 26" fill="none" xmlns="http://www.w3.org/2000/svg">
<path d="M4.69707 19.455V22.22C4.69707 22.8033 4.94207 23.2583 5.43207 23.585C5.9454 23.8883 6.5054 24.04 7.11207 24.04C7.6954 24.04 8.2204 23.8767 8.68707 23.55C9.17707 23.2 9.42207 22.64 9.42207 21.87C9.8654 21.7533 10.2154 21.8 10.4721 22.01C10.7521 22.22 10.8337 22.5583 10.7171 23.025C10.4604 23.9583 9.8304 24.6467 8.82707 25.09C7.84707 25.5333 6.77374 25.7433 5.60707 25.72C4.97707 25.6967 4.34707 25.615 3.71707 25.475C3.1104 25.3117 2.56207 25.09 2.07207 24.81C1.6054 24.5067 1.2204 24.145 0.91707 23.725C0.63707 23.2817 0.49707 22.78 0.49707 22.22V12.42C0.49707 11.86 0.63707 11.37 0.91707 10.95C1.2204 10.5067 1.6054 10.1333 2.07207 9.83C2.56207 9.52667 3.1104 9.305 3.71707 9.165C4.34707 9.00167 4.97707 8.92 5.60707 8.92C6.14374 8.92 6.7154 8.97833 7.32207 9.095C7.92874 9.21167 8.48874 9.41 9.00207 9.69C9.53874 9.94667 9.9704 10.2967 10.2971 10.74C10.6471 11.1833 10.8221 11.72 10.8221 12.35V16.515C10.8221 17.3317 10.6121 18.0083 10.1921 18.545C9.77207 19.0583 9.24707 19.4433 8.61707 19.7C8.0104 19.9333 7.3454 20.0383 6.62207 20.015C5.92207 19.9683 5.2804 19.7817 4.69707 19.455ZM9.42207 12.525C9.42207 11.895 9.1654 11.4167 8.65207 11.09C8.16207 10.74 7.64874 10.565 7.11207 10.565C6.5054 10.565 5.9454 10.7283 5.43207 11.055C4.94207 11.3817 4.69707 11.8367 4.69707 12.42V16.515C4.69707 17.1217 4.94207 17.5767 5.43207 17.88C5.92207 18.1833 6.45874 18.335 7.04207 18.335C7.64874 18.335 8.19707 18.1833 8.68707 17.88C9.17707 17.5767 9.42207 17.1217 9.42207 16.515V12.525ZM18.5125 8.885H21.3125V10.145H19.2125C18.8858 10.145 18.6875 10.285 18.6175 10.565C18.5475 10.8217 18.5125 11.0783 18.5125 11.335V22.92C18.5125 23.1767 18.5475 23.445 18.6175 23.725C18.6875 24.005 18.8858 24.145 19.2125 24.145C19.5392 24.145 19.7375 24.005 19.8075 23.725C19.8775 23.445 19.9125 23.1767 19.9125 22.92V11.545H21.3125V22.92C21.3125 23.6667 21.0442 24.3317 20.5075 24.915C19.9708 25.4517 19.3058 25.72 18.5125 25.72H14.3125V4.125H15.7125C16.5058 4.125 17.1708 4.39333 17.7075 4.93C18.2442 5.46666 18.5125 6.13167 18.5125 6.925V8.885ZM38.8125 25.72H36.0125V12.42C36.0125 11.8133 35.7908 11.3583 35.3475 11.055C34.9042 10.7517 34.4142 10.6 33.8775 10.6C33.3642 10.6 32.8858 10.7517 32.4425 11.055C32.0225 11.3583 31.8125 11.8133 31.8125 12.42V22.92C31.8125 23.6667 31.5442 24.3317 31.0075 24.915C30.4708 25.4517 29.8058 25.72 29.0125 25.72H24.8125V4.125H26.2125C27.0058 4.125 27.6708 4.39333 28.2075 4.93C28.7442 5.46666 29.0125 6.13167 29.0125 6.925V22.92C29.0125 23.1767 29.0475 23.445 29.1175 23.725C29.1875 24.005 29.3858 24.145 29.7125 24.145C30.0392 24.145 30.2375 24.005 30.3075 23.725C30.3775 23.445 30.4125 23.1767 30.4125 22.92V12.42C30.4125 11.6267 30.6225 10.9733 31.0425 10.46C31.4625 9.92333 31.9758 9.53833 32.5825 9.305C33.2125 9.04833 33.8892 8.93167 34.6125 8.955C35.3358 8.955 36.0008 9.08333 36.6075 9.34C37.2375 9.59667 37.7625 9.99333 38.1825 10.53C38.6025 11.0433 38.8125 11.6733 38.8125 12.42V25.72ZM56.3193 25.72H53.5193V12.42C53.5193 11.8133 53.2977 11.3583 52.8543 11.055C52.411 10.7517 51.921 10.6 51.3843 10.6C50.871 10.6 50.3927 10.7517 49.9493 11.055C49.5293 11.3583 49.3193 11.8133 49.3193 12.42V22.92C49.3193 23.6667 49.051 24.3317 48.5143 24.915C47.9777 25.4517 47.3127 25.72 46.5193 25.72H42.3193V8.885H43.7193C44.5127 8.885 45.1777 9.165 45.7143 9.725C46.251 10.2617 46.5193 10.9267 46.5193 11.72V22.92C46.5193 23.1767 46.5543 23.445 46.6243 23.725C46.6943 24.005 46.8927 24.145 47.2193 24.145C47.546 24.145 47.7443 24.005 47.8143 23.725C47.8843 23.445 47.9193 23.1767 47.9193 22.92V12.42C47.9193 11.6267 48.1293 10.9733 48.5493 10.46C48.9693 9.92333 49.4827 9.53833 50.0893 9.305C50.7193 9.04833 51.396 8.93167 52.1193 8.955C52.8427 8.955 53.5077 9.08333 54.1143 9.34C54.7443 9.59667 55.2693 9.99333 55.6893 10.53C56.1093 11.0433 56.3193 11.6733 56.3193 12.42V25.72ZM61.2262 25.72H59.8262V11.72C59.8262 10.9267 60.0945 10.2617 60.6312 9.725C61.1912 9.165 61.8562 8.885 62.6262 8.885H64.0262C64.8195 8.885 65.4845 9.165 66.0212 9.725C66.5578 10.2383 66.8262 10.9033 66.8262 11.72V25.72H62.6262V11.72C62.6262 11.4633 62.5912 11.195 62.5212 10.915C62.4512 10.635 62.2528 10.495 61.9262 10.495C61.5995 10.495 61.4012 10.635 61.3312 10.915C61.2612 11.195 61.2262 11.4633 61.2262 11.72V25.72ZM63.1512 7.555C62.6612 7.53167 62.1828 7.42667 61.7162 7.24C61.2728 7.05333 60.9228 6.83167 60.6662 6.575C60.1062 6.06167 59.8262 5.39667 59.8262 4.58C59.8262 4.20667 59.9662 3.88 60.2462 3.6C60.5262 3.32 60.8528 3.18 61.2262 3.18C61.6228 3.18 61.9612 3.32 62.2412 3.6C62.4978 3.90333 62.6262 4.23 62.6262 4.58C62.6262 4.95333 62.4978 5.29167 62.2412 5.595C62.1945 5.64167 62.1478 5.67667 62.1012 5.7C62.0545 5.72333 62.0078 5.75833 61.9612 5.805C62.0778 5.96833 62.2528 6.09666 62.4862 6.19C62.7428 6.26 62.9995 6.295 63.2562 6.295C63.7695 6.295 64.1895 6.19 64.5162 5.98C64.8428 5.77 65.0878 5.525 65.2512 5.245C65.5312 4.77833 65.6012 4.27667 65.4612 3.74C65.3445 3.18 65.0528 2.76 64.5862 2.48C64.0728 2.17666 63.3612 2.13 62.4512 2.34C62.4512 1.96667 62.5562 1.64 62.7662 1.36C62.9762 1.08 63.3728 0.939999 63.9562 0.939999C64.5162 0.939999 64.9945 1.06833 65.3912 1.325C65.7878 1.55833 66.1145 1.87333 66.3712 2.27C66.6512 2.73667 66.8028 3.285 66.8262 3.915C66.8728 4.52167 66.7678 5.105 66.5112 5.665C66.2778 6.20167 65.8812 6.65667 65.3212 7.03C64.7612 7.40333 64.0378 7.57833 63.1512 7.555ZM70.3604 12.42C70.3604 11.86 70.5004 11.37 70.7804 10.95C71.0837 10.5067 71.4687 10.1333 71.9354 9.83C72.4254 9.52667 72.9737 9.305 73.5804 9.165C74.2104 9.00167 74.8404 8.92 75.4704 8.92C76.287 8.89667 77.0687 8.99 77.8154 9.2C78.5854 9.41 79.2154 9.74833 79.7054 10.215C80.102 10.5417 80.3704 10.95 80.5104 11.44C80.6737 11.9067 80.627 12.3033 80.3704 12.63C80.207 12.84 79.997 12.98 79.7404 13.05C79.4837 13.12 79.2387 13.12 79.0054 13.05C78.772 12.98 78.5737 12.8517 78.4104 12.665C78.247 12.455 78.1654 12.1867 78.1654 11.86C78.1654 11.51 78.2704 11.23 78.4804 11.02C78.2704 10.8567 78.0254 10.74 77.7454 10.67C77.4887 10.6 77.232 10.565 76.9754 10.565C76.3687 10.565 75.8087 10.7283 75.2954 11.055C74.8054 11.3817 74.5604 11.8367 74.5604 12.42V22.22C74.5604 22.8033 74.8054 23.2583 75.2954 23.585C75.8087 23.8883 76.3687 24.04 76.9754 24.04C77.5587 24.04 78.0837 23.8767 78.5504 23.55C79.0404 23.2 79.2854 22.64 79.2854 21.87C79.7287 21.7533 80.0787 21.8 80.3354 22.01C80.6154 22.22 80.697 22.5583 80.5804 23.025C80.3237 23.9583 79.6937 24.6467 78.6904 25.09C77.7104 25.5333 76.637 25.7433 75.4704 25.72C74.8404 25.6967 74.2104 25.615 73.5804 25.475C72.9737 25.3117 72.4254 25.09 71.9354 24.81C71.4687 24.5067 71.0837 24.145 70.7804 23.725C70.5004 23.2817 70.3604 22.78 70.3604 22.22V12.42Z" fill="#332317"/>
</svg>
